<svg width="820" height="312" viewBox="0 0 820 312" fill="none" xmlns="http://www.w3.org/2000/svg">
<g clip-path="url(#clip0_510_9)">
<path d="M-73 216.094L-72.3529 216.762L-71.7057 217.428L-71.0586 218.093L-70.4115 218.756L-69.7643 219.418L-69.1172 220.077L-68.47 220.735L-67.8229 221.391L-67.1758 222.046L-66.5286 222.698L-65.8815 223.348L-65.2344 223.996L-64.5872 224.642L-63.9401 225.285L-63.293 225.926L-62.6458 226.565L-61.9987 227.202L-61.3515 227.836L-60.7044 228.467L-60.0573 229.096L-59.4101 229.721L-58.763 230.345L-58.1159 230.965L-57.4687 231.582L-56.8216 232.197L-56.1745 232.808L-55.5273 233.417L-54.8802 234.022L-54.233 234.624L-53.5859 235.223L-52.9388 235.818L-52.2916 236.41L-51.6445 236.999L-50.9974 237.584L-50.3502 238.165L-49.7031 238.743L-49.056 239.317L-48.4088 239.887L-47.7617 240.454L-47.1145 241.017L-46.4674 241.575L-45.8203 242.13L-45.1731 242.681L-44.526 243.228L-43.8789 243.77L-43.2317 244.308L-42.5846 244.842L-41.9375 245.372L-41.2903 245.897L-40.6432 246.418L-39.9961 246.935L-39.3489 247.447L-38.7018 247.954L-38.0546 248.457L-37.4075 248.955L-36.7604 249.448L-36.1132 249.937L-35.4661 250.42L-34.819 250.899L-34.1718 251.373L-33.5247 251.842L-32.8776 252.306L-32.2304 252.764L-31.5833 253.218L-30.9361 253.666L-30.289 254.11L-29.6419 254.548L-28.9947 254.98L-28.3476 255.408L-27.7005 255.83L-27.0533 256.246L-26.4062 256.657L-25.7591 257.063L-25.1119 257.462L-24.4648 257.857L-23.8176 258.245L-23.1705 258.628L-22.5234 259.006L-21.8762 259.377L-21.2291 259.743L-20.582 260.103L-19.9348 260.457L-19.2877 260.805L-18.6406 261.147L-17.9934 261.483L-17.3463 261.813L-16.6991 262.138L-16.052 262.456L-15.4049 262.767L-14.7577 263.073L-14.1106 263.373L-13.4635 263.666L-12.8163 263.953L-12.1692 264.234L-11.5221 264.509L-10.8749 264.777L-10.2278 265.039L-9.58065 265.295L-8.93351 265.544L-8.28637 265.786L-7.63924 266.023L-6.9921 266.253L-6.34496 266.476L-5.69783 266.693L-5.05069 266.903L-4.40356 267.106L-3.75642 267.303L-3.10928 267.494L-2.46215 267.678L-1.81501 267.855L-1.16787 268.025L-0.520738 268.189L0.126399 268.346L0.773535 268.497L1.42067 268.641L2.06781 268.778L2.71494 268.908L3.36208 269.031L4.00922 269.148L4.65635 269.258L5.30349 269.361L5.95063 269.457L6.59776 269.546L7.2449 269.629L7.89203 269.705L8.53917 269.773L9.18631 269.835L9.83344 269.891L10.4806 269.939L11.1277 269.98L11.7749 270.015L12.422 270.042L13.0691 270.063L13.7163 270.077L14.3634 270.084L15.0105 270.084L15.6577 270.077L16.3048 270.063L16.9519 270.043L17.5991 270.015L18.2462 269.981L18.8934 269.94L19.5405 269.891L20.1876 269.836L20.8348 269.775L21.4819 269.706L22.129 269.63L22.7762 269.548L23.4233 269.459L24.0704 269.362L24.7176 269.26L25.3647 269.15L26.0118 269.033L26.659 268.91L27.3061 268.78L27.9533 268.643L28.6004 268.499L29.2475 268.349L29.8947 268.192L30.5418 268.028L31.1889 267.858L31.8361 267.681L32.4832 267.497L33.1303 267.307L33.7775 267.11L34.4246 266.906L35.0718 266.696L35.7189 266.48L36.366 266.257L37.0132 266.027L37.6603 265.791L38.3074 265.548L38.9546 265.299L39.6017 265.044L40.2488 264.782L40.896 264.514L41.5431 264.239L42.1903 263.958L42.8374 263.671L43.4845 263.378L44.1317 263.079L44.7788 262.773L45.4259 262.461L46.0731 262.143L46.7202 261.819L47.3673 261.489L48.0145 261.153L48.6616 260.811L49.3088 260.463L49.9559 260.109L50.603 259.749L51.2502 259.384L51.8973 259.012L52.5444 258.635L53.1916 258.252L53.8387 257.864L54.4858 257.469L55.133 257.07L55.7801 256.664L56.4273 256.253L57.0744 255.837L57.7215 255.415L58.3687 254.988L59.0158 254.555L59.6629 254.117L60.3101 253.674L60.9572 253.226L61.6043 252.772L62.2515 252.314L62.8986 251.85L63.5458 251.381L64.1929 250.907L64.84 250.429L65.4872 249.945L66.1343 249.457L66.7814 248.964L67.4286 248.466L68.0757 247.963L68.7228 247.456L69.37 246.944L70.0171 246.428L70.6643 245.907L71.3114 245.381L71.9585 244.852L72.6057 244.318L73.2528 243.78L73.8999 243.237L74.5471 242.691L75.1942 242.14L75.8413 241.585L76.4885 241.027L77.1356 240.464L77.7828 239.897L78.4299 239.327L79.077 238.753L79.7242 238.175L80.3713 237.594L81.0184 237.009L81.6656 236.42L82.3127 235.829L82.9598 235.233L83.607 234.635L84.2541 234.033L84.9013 233.427L85.5484 232.819L86.1955 232.208L86.8427 231.593L87.4898 230.976L88.1369 230.356L88.7841 229.733L89.4312 229.107L90.0783 228.478L90.7255 227.847L91.3726 227.213L92.0197 226.577L92.6669 225.938L93.314 225.297L93.9612 224.653L94.6083 224.007L95.2554 223.359L95.9026 222.709L96.5497 222.057L97.1968 221.403L97.844 220.747L98.4911 220.089L99.1382 219.429L99.7854 218.768L100.433 218.105L101.08 217.44L101.727 216.774L102.374 216.106L103.021 215.437L103.668 214.767L104.315 214.095L104.962 213.422L105.61 212.749L106.257 212.074L106.904 211.398L107.551 210.721L108.198 210.043L108.845 209.365L109.492 208.686L110.14 208.006L110.787 207.326L111.434 206.645L112.081 205.964L112.728 205.282L113.375 204.601L114.022 203.918L114.67 203.236L115.317 202.554L115.964 201.872L116.611 201.19L117.258 200.508L117.905 199.826L118.552 199.144L119.199 198.463L119.847 197.782L120.494 197.102L121.141 196.422L121.788 195.743L122.435 195.065L123.082 194.387L123.729 193.71L124.377 193.034L125.024 192.359L125.671 191.685L126.318 191.013L126.965 190.341L127.612 189.671L128.259 189.001L128.907 188.334L129.554 187.668L130.201 187.003L130.848 186.34L131.495 185.678L132.142 185.018L132.789 184.36L133.436 183.704L134.084 183.05L134.731 182.398L135.378 181.748L136.025 181.1L136.672 180.454L137.319 179.81L137.966 179.169L138.614 178.53L139.261 177.894L139.908 177.26L140.555 176.628L141.202 176L141.849 175.374L142.496 174.75L143.144 174.13L143.791 173.512L144.438 172.898L145.085 172.286L145.732 171.678L146.379 171.073L147.026 170.471L147.673 169.872L148.321 169.276L148.968 168.684L149.615 168.096L150.262 167.511L150.909 166.929L151.556 166.351L152.203 165.777L152.851 165.207L153.498 164.64L154.145 164.077L154.792 163.518L155.439 162.964L156.086 162.413L156.733 161.866L157.381 161.324L158.028 160.785L158.675 160.251L159.322 159.721L159.969 159.196L160.616 158.675L161.263 158.158L161.91 157.646L162.558 157.139L163.205 156.636L163.852 156.138L164.499 155.645L165.146 155.156L165.793 154.672L166.44 154.193L167.088 153.72L167.735 153.251L168.382 152.787L169.029 152.328L169.676 151.874L170.323 151.426L170.97 150.982L171.618 150.544L172.265 150.111L172.912 149.684L173.559 149.262L174.206 148.845L174.853 148.434L175.5 148.029L176.147 147.629L176.795 147.234L177.442 146.845L178.089 146.462L178.736 146.085L179.383 145.713L180.03 145.348L180.677 144.988L181.325 144.633L181.972 144.285L182.619 143.943L183.266 143.607L183.913 143.276L184.56 142.952L185.207 142.634L185.855 142.322L186.502 142.016L187.149 141.716L187.796 141.423L188.443 141.136L189.09 140.855L189.737 140.58L190.384 140.312L191.032 140.05L191.679 139.794L192.326 139.545L192.973 139.302L193.62 139.065L194.267 138.836L194.914 138.612L195.562 138.395L196.209 138.185L196.856 137.981L197.503 137.784L198.15 137.593L198.797 137.409L199.444 137.232L200.092 137.062L200.739 136.898L201.386 136.74L202.033 136.59L202.68 136.446L203.327 136.309L203.974 136.179L204.621 136.055L205.269 135.938L205.916 135.828L206.563 135.725L207.21 135.629L207.857 135.539L208.504 135.457L209.151 135.381L209.799 135.312L210.446 135.25L211.093 135.194L211.74 135.146L212.387 135.105L213.034 135.07L213.681 135.042L214.329 135.021L214.976 135.007L215.623 135L216.27 135L216.917 135.007L217.564 135.02L218.211 135.041L218.858 135.068L219.506 135.103L220.153 135.144L220.8 135.192L221.447 135.247L222.094 135.308L222.741 135.377L223.388 135.452L224.036 135.535L224.683 135.624L225.33 135.72L225.977 135.823L226.624 135.932L227.271 136.049L227.918 136.172L228.566 136.302L229.213 136.439L229.86 136.582L230.507 136.732L231.154 136.889L231.801 137.053L232.448 137.223L233.095 137.4L233.743 137.583L234.39 137.774L235.037 137.971L235.684 138.174L236.331 138.384L236.978 138.6L237.625 138.824L238.273 139.053L238.92 139.289L239.567 139.532L240.214 139.781L240.861 140.036L241.508 140.298L242.155 140.566L242.803 140.84L243.45 141.121L244.097 141.408L244.744 141.701L245.391 142L246.038 142.306L246.685 142.617L247.332 142.935L247.98 143.259L248.627 143.589L249.274 143.925L249.921 144.267L250.568 144.615L251.215 144.969L251.862 145.328L252.51 145.694L253.157 146.065L253.804 146.442L254.451 146.825L255.098 147.213L255.745 147.608L256.392 148.007L257.039 148.413L257.687 148.823L258.334 149.24L258.981 149.661L259.628 150.089L260.275 150.521L260.922 150.959L261.569 151.402L262.217 151.85L262.864 152.304L263.511 152.762L264.158 153.226L264.805 153.695L265.452 154.168L266.099 154.647L266.747 155.13L267.394 155.619L268.041 156.112L268.688 156.61L269.335 157.112L269.982 157.619L270.629 158.131L271.276 158.647L271.924 159.168L272.571 159.693L273.218 160.223L273.865 160.757L274.512 161.295L275.159 161.837L275.806 162.384L276.454 162.934L277.101 163.489L277.748 164.048L278.395 164.61L279.042 165.177L279.689 165.747L280.336 166.321L280.984 166.898L281.631 167.48L282.278 168.065L282.925 168.653L283.572 169.245L284.219 169.84L284.866 170.439L285.513 171.041L286.161 171.646L286.808 172.254L287.455 172.865L288.102 173.48L288.749 174.097L289.396 174.717L290.043 175.34L290.691 175.966L291.338 176.595L291.985 177.226L292.632 177.86L293.279 178.496L293.926 179.135L294.573 179.776L295.221 180.42L295.868 181.065L296.515 181.713L297.162 182.363L297.809 183.015L298.456 183.67L299.103 184.326L299.75 184.983L300.398 185.643L301.045 186.305L301.692 186.968L302.339 187.632L302.986 188.298L303.633 188.966L304.28 189.635L304.928 190.305L305.575 190.977L306.222 191.65L306.869 192.324L307.516 192.998L308.163 193.674L308.81 194.351L309.458 195.029L310.105 195.707L310.752 196.386L311.399 197.066L312.046 197.746L312.693 198.427L313.34 199.108L313.987 199.79L314.635 200.471L315.282 201.153L315.929 201.836L316.576 202.518L317.223 203.2L317.87 203.882L318.517 204.564L319.165 205.246L319.812 205.928L320.459 206.609L321.106 207.29L321.753 207.97L322.4 208.65L323.047 209.329L323.695 210.007L324.342 210.685L324.989 211.362L325.636 212.038L326.283 212.713L326.93 213.387L327.577 214.06L328.224 214.731L328.872 215.402L329.519 216.071L330.166 216.738L330.813 217.405L331.46 218.07L332.107 218.733L332.754 219.394L333.402 220.054L334.049 220.712L334.696 221.368L335.343 222.022L335.99 222.675L336.637 223.325L337.284 223.973L337.932 224.619L338.579 225.262L339.226 225.904L339.873 226.543L340.52 227.179L341.167 227.813L341.814 228.445L342.461 229.073L343.109 229.699L343.756 230.323L344.403 230.943L345.05 231.561L345.697 232.175L346.344 232.787L346.991 233.395L347.639 234.001L348.286 234.603L348.933 235.202L349.58 235.797L350.227 236.389L350.874 236.978L351.521 237.563L352.169 238.145L352.816 238.723L353.463 239.297L354.11 239.867L354.757 240.434L355.404 240.997L356.051 241.556L356.698 242.111L357.346 242.662L357.993 243.208L358.64 243.751L359.287 244.289L359.934 244.824L360.581 245.353L361.228 245.879L361.876 246.4L362.523 246.917L363.17 247.429L363.817 247.936L364.464 248.439L365.111 248.937L365.758 249.431L366.406 249.919L367.053 250.403L367.7 250.882L368.347 251.356L368.994 251.825L369.641 252.289L370.288 252.748L370.935 253.202L371.583 253.651L372.23 254.094L372.877 254.532L373.524 254.965L374.171 255.393L374.818 255.815L375.465 256.231L376.113 256.643L376.76 257.048L377.407 257.448L378.054 257.843L378.701 258.232L379.348 258.615L379.995 258.992L380.643 259.364L381.29 259.73L381.937 260.09L382.584 260.444L383.231 260.793L383.878 261.135L384.525 261.471L385.172 261.802L385.82 262.126L386.467 262.444L387.114 262.757L387.761 263.063L388.408 263.362L389.055 263.656L389.702 263.943L390.35 264.224L390.997 264.499L391.644 264.768L392.291 265.03L392.938 265.286L393.585 265.535L394.232 265.778L394.88 266.014L395.527 266.245L396.174 266.468L396.821 266.685L397.468 266.895L398.115 267.099L398.762 267.297L399.409 267.487L400.057 267.671L400.704 267.849L401.351 268.02L401.998 268.184L402.645 268.341L403.292 268.492L403.939 268.636L404.587 268.773L405.234 268.903L405.881 269.027L406.528 269.144L407.175 269.254L407.822 269.357L408.469 269.454L409.117 269.543L409.764 269.626L410.411 269.702L411.058 269.771L411.705 269.833L412.352 269.889L412.999 269.937L413.646 269.979L414.294 270.014L414.941 270.041L415.588 270.062L416.235 270.076L416.882 270.084L417.529 270.084L418.176 270.077L418.824 270.064L419.471 270.044L420.118 270.016L420.765 269.982L421.412 269.941L422.059 269.893L422.706 269.838L423.354 269.777L424.001 269.708L424.648 269.633L425.295 269.551L425.942 269.462L426.589 269.366L427.236 269.263L427.883 269.154L428.531 269.037L429.178 268.914L429.825 268.785L430.472 268.648L431.119 268.505L431.766 268.355L432.413 268.198L433.061 268.034L433.708 267.864L434.355 267.687L435.002 267.504L435.649 267.314L436.296 267.117L436.943 266.914L437.591 266.704L438.238 266.487L438.885 266.265L439.532 266.035L440.179 265.799L440.826 265.557L441.473 265.308L442.12 265.053L442.768 264.791L443.415 264.523L444.062 264.249L444.709 263.968L445.356 263.682L446.003 263.389L446.65 263.089L447.298 262.784L447.945 262.472L448.592 262.155L449.239 261.831L449.886 261.501L450.533 261.165L451.18 260.823L451.828 260.475L452.475 260.122L453.122 259.762L453.769 259.397L454.416 259.026L455.063 258.649L455.71 258.266L456.357 257.878L457.005 257.483L457.652 257.084L458.299 256.679L458.946 256.268L459.593 255.852L460.24 255.43L460.887 255.003L461.535 254.571L462.182 254.133L462.829 253.69L463.476 253.242L464.123 252.788L464.77 252.33L465.417 251.866L466.065 251.398L466.712 250.924L467.359 250.446L468.006 249.962L468.653 249.474L469.3 248.981L469.947 248.483L470.594 247.981L471.242 247.474L471.889 246.962L472.536 246.446L473.183 245.925L473.83 245.4L474.477 244.871L475.124 244.337L475.772 243.799L476.419 243.256L477.066 242.71L477.713 242.159L478.36 241.605L479.007 241.046L479.654 240.484L480.302 239.918L480.949 239.347L481.596 238.773L482.243 238.196L482.89 237.615L483.537 237.03L484.184 236.441L484.831 235.85L485.479 235.254L486.126 234.656L486.773 234.054L487.42 233.449L488.067 232.841L488.714 232.229L489.361 231.615L490.009 230.998L490.656 230.378L491.303 229.755L491.95 229.129L492.597 228.5L493.244 227.869L493.891 227.235L494.539 226.599L495.186 225.96L495.833 225.319L496.48 224.676L497.127 224.03L497.774 223.382L498.421 222.732L499.068 222.08L499.716 221.426L500.363 220.77L501.01 220.112L501.657 219.453L502.304 218.791L502.951 218.128L503.598 217.464L504.246 216.797L504.893 216.13L505.54 215.461L506.187 214.791L506.834 214.119L507.481 213.446L508.128 212.772L508.776 212.098L509.423 211.422L510.07 210.745L510.717 210.067L511.364 209.389L512.011 208.71L512.658 208.03L513.305 207.35L513.953 206.669L514.6 205.988L515.247 205.306L515.894 204.625L516.541 203.943L517.188 203.26L517.835 202.578L518.483 201.896L519.13 201.214L519.777 200.532L520.424 199.85L521.071 199.168L521.718 198.487L522.365 197.806L523.013 197.126L523.66 196.446L524.307 195.767L524.954 195.089L525.601 194.411L526.248 193.734L526.895 193.058L527.542 192.383L528.19 191.709L528.837 191.036L529.484 190.365L530.131 189.694L530.778 189.025L531.425 188.357L532.072 187.691L532.72 187.026L533.367 186.363L534.014 185.702L534.661 185.042L535.308 184.384L535.955 183.727L536.602 183.073L537.25 182.421L537.897 181.771L538.544 181.123L539.191 180.477L539.838 179.833L540.485 179.192L541.132 178.553L541.779 177.916L542.427 177.282L543.074 176.651L543.721 176.022L544.368 175.396L545.015 174.772L545.662 174.152L546.309 173.534L546.957 172.92L547.604 172.308L548.251 171.699L548.898 171.094L549.545 170.492L550.192 169.893L550.839 169.297L551.487 168.705L552.134 168.117L552.781 167.531L553.428 166.95L554.075 166.372L554.722 165.797L555.369 165.227L556.016 164.66L556.664 164.097L557.311 163.538L557.958 162.983L558.605 162.432L559.252 161.885L559.899 161.343L560.546 160.804L561.194 160.27L561.841 159.74L562.488 159.214L563.135 158.693L563.782 158.176L564.429 157.664L565.076 157.157L565.723 156.654L566.371 156.156L567.018 155.662L567.665 155.173L568.312 154.689L568.959 154.21L569.606 153.736L570.253 153.267L570.901 152.803L571.548 152.344L572.195 151.89L572.842 151.441L573.489 150.998L574.136 150.56L574.783 150.127L575.431 149.699L576.078 149.277L576.725 148.86L577.372 148.449L578.019 148.043L578.666 147.643L579.313 147.248L579.96 146.859L580.608 146.476L581.255 146.098L581.902 145.726L582.549 145.36L583.196 145L583.843 144.646L584.49 144.297L585.138 143.955L585.785 143.618L586.432 143.288L587.079 142.964L587.726 142.645L588.373 142.333L589.02 142.027L589.668 141.727L590.315 141.433L590.962 141.146L591.609 140.864L592.256 140.59L592.903 140.321L593.55 140.059L594.197 139.803L594.845 139.553L595.492 139.31L596.139 139.074L596.786 138.844L597.433 138.62L598.08 138.403L598.727 138.192L599.375 137.988L600.022 137.791L600.669 137.6L601.316 137.416L601.963 137.238L602.61 137.067L603.257 136.903L603.905 136.746L604.552 136.595L605.199 136.451L605.846 136.314L606.493 136.183L607.14 136.059L607.787 135.942L608.434 135.832L609.082 135.729L609.729 135.632L610.376 135.542L611.023 135.459L611.67 135.383L612.317 135.314L612.964 135.252L613.612 135.196L614.259 135.148L614.906 135.106L615.553 135.071L616.2 135.043L616.847 135.022L617.494 135.008L618.142 135L618.789 135L619.436 135.006L620.083 135.02L620.73 135.04L621.377 135.067L622.024 135.101L622.671 135.142L623.319 135.19L623.966 135.245L624.613 135.306L625.26 135.374L625.907 135.45L626.554 135.532L627.201 135.621L627.849 135.716L628.496 135.819L629.143 135.928L629.79 136.044L630.437 136.167L631.084 136.297L631.731 136.434L632.379 136.577L633.026 136.727L633.673 136.883L634.32 137.047L634.967 137.217L635.614 137.394L636.261 137.577L636.908 137.767L637.556 137.963L638.203 138.167L638.85 138.376L639.497 138.593L640.144 138.816L640.791 139.045L641.438 139.281L642.086 139.523L642.733 139.772L643.38 140.027L644.027 140.288L644.674 140.556L645.321 140.83L645.968 141.111L646.616 141.397L647.263 141.69L647.91 141.989L648.557 142.295L649.204 142.606L649.851 142.924L650.498 143.248L651.145 143.577L651.793 143.913L652.44 144.255L653.087 144.602L653.734 144.956L654.381 145.315L655.028 145.681L655.675 146.052L656.323 146.429L656.97 146.811L657.617 147.2L658.264 147.594L658.911 147.993L659.558 148.398L660.205 148.809L660.853 149.225L661.5 149.646L662.147 150.073L662.794 150.506L663.441 150.943L664.088 151.386L664.735 151.834L665.382 152.288L666.03 152.746L666.677 153.209L667.324 153.678L667.971 154.151L668.618 154.63L669.265 155.113L669.912 155.601L670.56 156.094L671.207 156.592L671.854 157.094L672.501 157.601L673.148 158.113L673.795 158.629L674.442 159.15L675.09 159.675L675.737 160.204L676.384 160.738L677.031 161.276L677.678 161.818L678.325 162.364L678.972 162.915L679.619 163.469L680.267 164.028L680.914 164.59L681.561 165.156L682.208 165.727L682.855 166.3L683.502 166.878L684.149 167.459L684.797 168.044L685.444 168.632L686.091 169.224L686.738 169.819L687.385 170.418L688.032 171.019L688.679 171.624L689.327 172.233L689.974 172.844L690.621 173.458L691.268 174.075L691.915 174.695L692.562 175.318L693.209 175.944L693.856 176.573L694.504 177.204L695.151 177.837L695.798 178.474L696.445 179.112L697.092 179.753L697.739 180.397L698.386 181.043L699.034 181.69L699.681 182.34L700.328 182.992L700.975 183.646L701.622 184.302L702.269 184.96L702.916 185.62L703.564 186.281L704.211 186.944L704.858 187.609L705.505 188.275L706.152 188.942L706.799 189.611L707.446 190.282L708.093 190.953L708.741 191.626L709.388 192.3L710.035 192.975L710.682 193.65L711.329 194.327L711.976 195.005L712.623 195.683L713.271 196.362L713.918 197.042L714.565 197.722L715.212 198.403L715.859 199.084L716.506 199.766L717.153 200.447L717.801 201.129L718.448 201.812L719.095 202.494L719.742 203.176L720.389 203.858L721.036 204.54L721.683 205.222L722.33 205.904L722.978 206.585L723.625 207.266L724.272 207.946L724.919 208.626L725.566 209.305L726.213 209.983L726.86 210.661L727.508 211.338L728.155 212.014L728.802 212.689L729.449 213.363L730.096 214.036L730.743 214.708L731.39 215.378L732.038 216.047L732.685 216.715L733.332 217.381L733.979 218.046L734.626 218.709L735.273 219.371L735.92 220.031L736.567 220.689L737.215 221.345L737.862 221.999L738.509 222.652L739.156 223.302L739.803 223.95L740.45 224.596L741.097 225.24L741.745 225.881L742.392 226.52L743.039 227.157L743.686 227.791L744.333 228.422L744.98 229.051L745.627 229.677L746.275 230.301L746.922 230.921L747.569 231.539L748.216 232.154L748.863 232.765L749.51 233.374L750.157 233.979L750.804 234.581L751.452 235.18L752.099 235.776L752.746 236.368L753.393 236.957L754.04 237.542L754.687 238.124L755.334 238.702L755.982 239.277L756.629 239.847L757.276 240.414L757.923 240.977L758.57 241.536L759.217 242.091L759.864 242.642L760.512 243.189L761.159 243.732L761.806 244.27L762.453 244.805L763.1 245.335L763.747 245.86L764.394 246.382L765.041 246.898L765.689 247.411L766.336 247.918L766.983 248.421L767.63 248.92L768.277 249.413L768.924 249.902L769.571 250.386L770.219 250.865L770.866 251.34L771.513 251.809L772.16 252.273L772.807 252.732L773.454 253.186L774.101 253.635L774.749 254.078L775.396 254.517L776.043 254.95L776.69 255.378L777.337 255.8L777.984 256.217L778.631 256.628L779.278 257.034L779.926 257.434L780.573 257.829L781.22 258.218L781.867 258.602L782.514 258.979L783.161 259.351L783.808 259.717L784.456 260.078L785.103 260.432L785.75 260.78L786.397 261.123L787.044 261.46L787.691 261.79L788.338 262.115L788.986 262.433L789.633 262.746L790.28 263.052L790.927 263.352L791.574 263.646L792.221 263.933L792.868 264.215L793.515 264.49L794.163 264.758L794.81 265.021L795.457 265.277L796.104 265.526L796.751 265.77L797.398 266.006L798.045 266.236L798.693 266.46L799.34 266.677L799.987 266.888L800.634 267.092L801.281 267.29L801.928 267.481L802.575 267.665L803.223 267.843L803.87 268.014L804.517 268.178L805.164 268.336L805.811 268.486L806.458 268.631L807.105 268.768L807.752 268.899L808.4 269.023L809.047 269.14L809.694 269.25L810.341 269.354L810.988 269.45L811.635 269.54L812.282 269.623L812.93 269.699L813.577 269.769L814.224 269.831L814.871 269.887L815.518 269.936L816.165 269.977L816.812 270.012L817.46 270.041L818.107 270.062L818.754 270.076L819.401 270.084L820.048 270.084L820.695 270.078L821.342 270.065L821.989 270.044L822.637 270.017L823.284 269.983L823.931 269.943L824.578 269.895L825.225 269.841L825.872 269.779L826.519 269.711L827.167 269.636L827.814 269.554L828.461 269.465L829.108 269.369L829.755 269.267L830.402 269.158L831.049 269.042L831.697 268.919L832.344 268.789L832.991 268.653L833.638 268.51L834.285 268.36L834.932 268.203L835.579 268.04L836.226 267.87L836.874 267.694L837.521 267.51L838.168 267.321L838.815 267.124L839.462 266.921L840.109 266.711L840.756 266.495L841.404 266.273L842.051 266.043L842.698 265.808L843.345 265.565L843.992 265.317L844.639 265.062L845.286 264.801L845.934 264.533L846.581 264.259L847.228 263.978L847.875 263.692L848.522 263.399L849.169 263.1L849.816 262.795L850.463 262.483L851.111 262.166L851.758 261.842L852.405 261.513L853.052 261.177L853.699 260.835L854.346 260.488L854.993 260.134L855.641 259.775L856.288 259.41L856.935 259.039L857.582 258.662L858.229 258.28L858.876 257.891L859.523 257.497L860.171 257.098L860.818 256.693L861.465 256.283L862.112 255.867L862.759 255.445L863.406 255.018L864.053 254.586L864.7 254.149L865.348 253.706L865.995 253.258L866.642 252.805L867.289 252.346L867.936 251.883L868.583 251.414L869.23 250.941L869.878 250.463L870.525 249.98L871.172 249.491L871.819 248.999L872.466 248.501L873.113 247.999L873.76 247.492L874.408 246.98L875.055 246.464L875.702 245.944L876.349 245.419L876.996 244.889L877.643 244.356L878.29 243.818L878.937 243.276L879.585 242.729L880.232 242.179L880.879 241.625L881.526 241.066L882.173 240.504L882.82 239.938L883.467 239.368L884.115 238.794L884.762 238.216L885.409 237.635L886.056 237.05L886.703 236.462L887.35 235.87L887.997 235.275L888.644 234.677L889.292 234.075L889.939 233.47L890.586 232.862L891.233 232.251L891.88 231.637L892.527 231.02L893.174 230.4L893.822 229.777L894.469 229.151L895.116 228.523L895.763 227.891L896.41 227.258L897.057 226.622L897.704 225.983L898.352 225.342L898.999 224.699L899.646 224.053L900.293 223.405L900.94 222.755L901.587 222.103L902.234 221.449L902.881 220.793L903.529 220.135L904.176 219.476L904.823 218.815L905.47 218.152L906.117 217.487L906.764 216.821L907.411 216.153L908.059 215.485L908.706 214.814L909.353 214.143L910 213.47" stroke="#0088FF" stroke-width="16" stroke-miterlimit="10" stroke-linecap="round" stroke-linejoin="round"/>
<path d="M-73 159.094L-72.3529 159.762L-71.7057 160.428L-71.0586 161.093L-70.4115 161.756L-69.7643 162.418L-69.1172 163.077L-68.47 163.735L-67.8229 164.391L-67.1758 165.046L-66.5286 165.698L-65.8815 166.348L-65.2344 166.996L-64.5872 167.642L-63.9401 168.285L-63.293 168.926L-62.6458 169.565L-61.9987 170.202L-61.3515 170.836L-60.7044 171.467L-60.0573 172.096L-59.4101 172.721L-58.763 173.345L-58.1159 173.965L-57.4687 174.582L-56.8216 175.197L-56.1745 175.808L-55.5273 176.417L-54.8802 177.022L-54.233 177.624L-53.5859 178.223L-52.9388 178.818L-52.2916 179.41L-51.6445 179.999L-50.9974 180.584L-50.3502 181.165L-49.7031 181.743L-49.056 182.317L-48.4088 182.887L-47.7617 183.454L-47.1145 184.017L-46.4674 184.575L-45.8203 185.13L-45.1731 185.681L-44.526 186.228L-43.8789 186.77L-43.2317 187.308L-42.5846 187.842L-41.9375 188.372L-41.2903 188.897L-40.6432 189.418L-39.9961 189.935L-39.3489 190.447L-38.7018 190.954L-38.0546 191.457L-37.4075 191.955L-36.7604 192.448L-36.1132 192.937L-35.4661 193.42L-34.819 193.899L-34.1718 194.373L-33.5247 194.842L-32.8776 195.306L-32.2304 195.764L-31.5833 196.218L-30.9361 196.666L-30.289 197.11L-29.6419 197.548L-28.9947 197.98L-28.3476 198.408L-27.7005 198.83L-27.0533 199.246L-26.4062 199.657L-25.7591 200.063L-25.1119 200.462L-24.4648 200.857L-23.8176 201.245L-23.1705 201.628L-22.5234 202.006L-21.8762 202.377L-21.2291 202.743L-20.582 203.103L-19.9348 203.457L-19.2877 203.805L-18.6406 204.147L-17.9934 204.483L-17.3463 204.813L-16.6991 205.138L-16.052 205.456L-15.4049 205.767L-14.7577 206.073L-14.1106 206.373L-13.4635 206.666L-12.8163 206.953L-12.1692 207.234L-11.5221 207.509L-10.8749 207.777L-10.2278 208.039L-9.58065 208.295L-8.93351 208.544L-8.28637 208.786L-7.63924 209.023L-6.9921 209.253L-6.34496 209.476L-5.69783 209.693L-5.05069 209.903L-4.40356 210.106L-3.75642 210.303L-3.10928 210.494L-2.46215 210.678L-1.81501 210.855L-1.16787 211.025L-0.520738 211.189L0.126399 211.346L0.773535 211.497L1.42067 211.641L2.06781 211.778L2.71494 211.908L3.36208 212.031L4.00922 212.148L4.65635 212.258L5.30349 212.361L5.95063 212.457L6.59776 212.546L7.2449 212.629L7.89203 212.705L8.53917 212.773L9.18631 212.835L9.83344 212.891L10.4806 212.939L11.1277 212.98L11.7749 213.015L12.422 213.042L13.0691 213.063L13.7163 213.077L14.3634 213.084L15.0105 213.084L15.6577 213.077L16.3048 213.063L16.9519 213.043L17.5991 213.015L18.2462 212.981L18.8934 212.94L19.5405 212.891L20.1876 212.836L20.8348 212.775L21.4819 212.706L22.129 212.63L22.7762 212.548L23.4233 212.459L24.0704 212.362L24.7176 212.26L25.3647 212.15L26.0118 212.033L26.659 211.91L27.3061 211.78L27.9533 211.643L28.6004 211.499L29.2475 211.349L29.8947 211.192L30.5418 211.028L31.1889 210.858L31.8361 210.681L32.4832 210.497L33.1303 210.307L33.7775 210.11L34.4246 209.906L35.0718 209.696L35.7189 209.48L36.366 209.257L37.0132 209.027L37.6603 208.791L38.3074 208.548L38.9546 208.299L39.6017 208.044L40.2488 207.782L40.896 207.514L41.5431 207.239L42.1903 206.958L42.8374 206.671L43.4845 206.378L44.1317 206.079L44.7788 205.773L45.4259 205.461L46.0731 205.143L46.7202 204.819L47.3673 204.489L48.0145 204.153L48.6616 203.811L49.3088 203.463L49.9559 203.109L50.603 202.749L51.2502 202.384L51.8973 202.012L52.5444 201.635L53.1916 201.252L53.8387 200.864L54.4858 200.469L55.133 200.07L55.7801 199.664L56.4273 199.253L57.0744 198.837L57.7215 198.415L58.3687 197.988L59.0158 197.555L59.6629 197.117L60.3101 196.674L60.9572 196.226L61.6043 195.772L62.2515 195.314L62.8986 194.85L63.5458 194.381L64.1929 193.907L64.84 193.429L65.4872 192.945L66.1343 192.457L66.7814 191.964L67.4286 191.466L68.0757 190.963L68.7228 190.456L69.37 189.944L70.0171 189.428L70.6643 188.907L71.3114 188.381L71.9585 187.852L72.6057 187.318L73.2528 186.78L73.8999 186.237L74.5471 185.691L75.1942 185.14L75.8413 184.585L76.4885 184.027L77.1356 183.464L77.7828 182.897L78.4299 182.327L79.077 181.753L79.7242 181.175L80.3713 180.594L81.0184 180.009L81.6656 179.42L82.3127 178.829L82.9598 178.233L83.607 177.635L84.2541 177.033L84.9013 176.427L85.5484 175.819L86.1955 175.208L86.8427 174.593L87.4898 173.976L88.1369 173.356L88.7841 172.733L89.4312 172.107L90.0783 171.478L90.7255 170.847L91.3726 170.213L92.0197 169.577L92.6669 168.938L93.314 168.297L93.9612 167.653L94.6083 167.007L95.2554 166.359L95.9026 165.709L96.5497 165.057L97.1968 164.403L97.844 163.747L98.4911 163.089L99.1382 162.429L99.7854 161.768L100.433 161.105L101.08 160.44L101.727 159.774L102.374 159.106L103.021 158.437L103.668 157.767L104.315 157.095L104.962 156.422L105.61 155.749L106.257 155.074L106.904 154.398L107.551 153.721L108.198 153.043L108.845 152.365L109.492 151.686L110.14 151.006L110.787 150.326L111.434 149.645L112.081 148.964L112.728 148.282L113.375 147.601L114.022 146.918L114.67 146.236L115.317 145.554L115.964 144.872L116.611 144.19L117.258 143.508L117.905 142.826L118.552 142.144L119.199 141.463L119.847 140.782L120.494 140.102L121.141 139.422L121.788 138.743L122.435 138.065L123.082 137.387L123.729 136.71L124.377 136.034L125.024 135.359L125.671 134.685L126.318 134.013L126.965 133.341L127.612 132.671L128.259 132.001L128.907 131.334L129.554 130.668L130.201 130.003L130.848 129.34L131.495 128.678L132.142 128.018L132.789 127.36L133.436 126.704L134.084 126.05L134.731 125.398L135.378 124.748L136.025 124.1L136.672 123.454L137.319 122.81L137.966 122.169L138.614 121.53L139.261 120.894L139.908 120.26L140.555 119.628L141.202 119L141.849 118.374L142.496 117.75L143.144 117.13L143.791 116.512L144.438 115.898L145.085 115.286L145.732 114.678L146.379 114.073L147.026 113.471L147.673 112.872L148.321 112.276L148.968 111.684L149.615 111.096L150.262 110.511L150.909 109.929L151.556 109.351L152.203 108.777L152.851 108.207L153.498 107.64L154.145 107.077L154.792 106.518L155.439 105.964L156.086 105.413L156.733 104.866L157.381 104.324L158.028 103.785L158.675 103.251L159.322 102.721L159.969 102.196L160.616 101.675L161.263 101.158L161.91 100.646L162.558 100.139L163.205 99.6361L163.852 99.138L164.499 98.6446L165.146 98.1561L165.793 97.6723L166.44 97.1934L167.088 96.7195L167.735 96.2506L168.382 95.7867L169.029 95.3278L169.676 94.8741L170.323 94.4255L170.97 93.9822L171.618 93.5441L172.265 93.1114L172.912 92.684L173.559 92.2619L174.206 91.8453L174.853 91.4342L175.5 91.0286L176.147 90.6286L176.795 90.2342L177.442 89.8454L178.089 89.4623L178.736 89.0849L179.383 88.7133L180.03 88.3475L180.677 87.9875L181.325 87.6334L181.972 87.2852L182.619 86.943L183.266 86.6067L183.913 86.2764L184.56 85.9522L185.207 85.6341L185.855 85.322L186.502 85.0161L187.149 84.7164L187.796 84.4229L188.443 84.1357L189.09 83.8547L189.737 83.58L190.384 83.3116L191.032 83.0495L191.679 82.7939L192.326 82.5446L192.973 82.3018L193.62 82.0654L194.267 81.8355L194.914 81.6121L195.562 81.3953L196.209 81.1849L196.856 80.9812L197.503 80.784L198.15 80.5934L198.797 80.4095L199.444 80.2322L200.092 80.0615L200.739 79.8976L201.386 79.7403L202.033 79.5898L202.68 79.4459L203.327 79.3089L203.974 79.1786L204.621 79.055L205.269 78.9383L205.916 78.8283L206.563 78.7251L207.21 78.6288L207.857 78.5393L208.504 78.4566L209.151 78.3808L209.799 78.3118L210.446 78.2497L211.093 78.1944L211.74 78.1461L212.387 78.1045L213.034 78.0699L213.681 78.0422L214.329 78.0213L214.976 78.0074L215.623 78.0003L216.27 78.0001L216.917 78.0068L217.564 78.0204L218.211 78.0409L218.858 78.0683L219.506 78.1025L220.153 78.1437L220.8 78.1917L221.447 78.2466L222.094 78.3083L222.741 78.377L223.388 78.4524L224.036 78.5347L224.683 78.6239L225.33 78.7199L225.977 78.8227L226.624 78.9323L227.271 79.0487L227.918 79.1718L228.566 79.3018L229.213 79.4385L229.86 79.582L230.507 79.7322L231.154 79.8891L231.801 80.0527L232.448 80.2229L233.095 80.3999L233.743 80.5835L234.39 80.7737L235.037 80.9705L235.684 81.1739L236.331 81.3839L236.978 81.6005L237.625 81.8235L238.273 82.0531L238.92 82.2891L239.567 82.5316L240.214 82.7805L240.861 83.0358L241.508 83.2975L242.155 83.5656L242.803 83.84L243.45 84.1206L244.097 84.4075L244.744 84.7007L245.391 85.0001L246.038 85.3057L246.685 85.6174L247.332 85.9352L247.98 86.2591L248.627 86.589L249.274 86.925L249.921 87.2669L250.568 87.6148L251.215 87.9686L251.862 88.3283L252.51 88.6938L253.157 89.0651L253.804 89.4422L254.451 89.825L255.098 90.2134L255.745 90.6076L256.392 91.0073L257.039 91.4126L257.687 91.8234L258.334 92.2397L258.981 92.6615L259.628 93.0886L260.275 93.5211L260.922 93.9589L261.569 94.4019L262.217 94.8502L262.864 95.3036L263.511 95.7622L264.158 96.2258L264.805 96.6945L265.452 97.1682L266.099 97.6468L266.747 98.1303L267.394 98.6186L268.041 99.1117L268.688 99.6096L269.335 100.112L269.982 100.619L270.629 101.131L271.276 101.647L271.924 102.168L272.571 102.693L273.218 103.223L273.865 103.757L274.512 104.295L275.159 104.837L275.806 105.384L276.454 105.934L277.101 106.489L277.748 107.048L278.395 107.61L279.042 108.177L279.689 108.747L280.336 109.321L280.984 109.898L281.631 110.48L282.278 111.065L282.925 111.653L283.572 112.245L284.219 112.84L284.866 113.439L285.513 114.041L286.161 114.646L286.808 115.254L287.455 115.865L288.102 116.48L288.749 117.097L289.396 117.717L290.043 118.34L290.691 118.966L291.338 119.595L291.985 120.226L292.632 120.86L293.279 121.496L293.926 122.135L294.573 122.776L295.221 123.42L295.868 124.065L296.515 124.713L297.162 125.363L297.809 126.015L298.456 126.67L299.103 127.326L299.75 127.983L300.398 128.643L301.045 129.305L301.692 129.968L302.339 130.632L302.986 131.298L303.633 131.966L304.28 132.635L304.928 133.305L305.575 133.977L306.222 134.65L306.869 135.324L307.516 135.998L308.163 136.674L308.81 137.351L309.458 138.029L310.105 138.707L310.752 139.386L311.399 140.066L312.046 140.746L312.693 141.427L313.34 142.108L313.987 142.79L314.635 143.471L315.282 144.153L315.929 144.836L316.576 145.518L317.223 146.2L317.87 146.882L318.517 147.564L319.165 148.246L319.812 148.928L320.459 149.609L321.106 150.29L321.753 150.97L322.4 151.65L323.047 152.329L323.695 153.007L324.342 153.685L324.989 154.362L325.636 155.038L326.283 155.713L326.93 156.387L327.577 157.06L328.224 157.731L328.872 158.402L329.519 159.071L330.166 159.738L330.813 160.405L331.46 161.07L332.107 161.733L332.754 162.394L333.402 163.054L334.049 163.712L334.696 164.368L335.343 165.022L335.99 165.675L336.637 166.325L337.284 166.973L337.932 167.619L338.579 168.262L339.226 168.904L339.873 169.543L340.52 170.179L341.167 170.813L341.814 171.445L342.461 172.073L343.109 172.699L343.756 173.323L344.403 173.943L345.05 174.561L345.697 175.175L346.344 175.787L346.991 176.395L347.639 177.001L348.286 177.603L348.933 178.202L349.58 178.797L350.227 179.389L350.874 179.978L351.521 180.563L352.169 181.145L352.816 181.723L353.463 182.297L354.11 182.867L354.757 183.434L355.404 183.997L356.051 184.556L356.698 185.111L357.346 185.662L357.993 186.208L358.64 186.751L359.287 187.289L359.934 187.824L360.581 188.353L361.228 188.879L361.876 189.4L362.523 189.917L363.17 190.429L363.817 190.936L364.464 191.439L365.111 191.937L365.758 192.431L366.406 192.919L367.053 193.403L367.7 193.882L368.347 194.356L368.994 194.825L369.641 195.289L370.288 195.748L370.935 196.202L371.583 196.651L372.23 197.094L372.877 197.532L373.524 197.965L374.171 198.393L374.818 198.815L375.465 199.231L376.113 199.643L376.76 200.048L377.407 200.448L378.054 200.843L378.701 201.232L379.348 201.615L379.995 201.992L380.643 202.364L381.29 202.73L381.937 203.09L382.584 203.444L383.231 203.793L383.878 204.135L384.525 204.471L385.172 204.802L385.82 205.126L386.467 205.444L387.114 205.757L387.761 206.063L388.408 206.362L389.055 206.656L389.702 206.943L390.35 207.224L390.997 207.499L391.644 207.768L392.291 208.03L392.938 208.286L393.585 208.535L394.232 208.778L394.88 209.014L395.527 209.245L396.174 209.468L396.821 209.685L397.468 209.895L398.115 210.099L398.762 210.297L399.409 210.487L400.057 210.671L400.704 210.849L401.351 211.02L401.998 211.184L402.645 211.341L403.292 211.492L403.939 211.636L404.587 211.773L405.234 211.903L405.881 212.027L406.528 212.144L407.175 212.254L407.822 212.357L408.469 212.454L409.117 212.543L409.764 212.626L410.411 212.702L411.058 212.771L411.705 212.833L412.352 212.889L412.999 212.937L413.646 212.979L414.294 213.014L414.941 213.041L415.588 213.062L416.235 213.076L416.882 213.084L417.529 213.084L418.176 213.077L418.824 213.064L419.471 213.044L420.118 213.016L420.765 212.982L421.412 212.941L422.059 212.893L422.706 212.838L423.354 212.777L424.001 212.708L424.648 212.633L425.295 212.551L425.942 212.462L426.589 212.366L427.236 212.263L427.883 212.154L428.531 212.037L429.178 211.914L429.825 211.785L430.472 211.648L431.119 211.505L431.766 211.355L432.413 211.198L433.061 211.034L433.708 210.864L434.355 210.687L435.002 210.504L435.649 210.314L436.296 210.117L436.943 209.914L437.591 209.704L438.238 209.487L438.885 209.265L439.532 209.035L440.179 208.799L440.826 208.557L441.473 208.308L442.12 208.053L442.768 207.791L443.415 207.523L444.062 207.249L444.709 206.968L445.356 206.682L446.003 206.389L446.65 206.089L447.298 205.784L447.945 205.472L448.592 205.155L449.239 204.831L449.886 204.501L450.533 204.165L451.18 203.823L451.828 203.475L452.475 203.122L453.122 202.762L453.769 202.397L454.416 202.026L455.063 201.649L455.71 201.266L456.357 200.878L457.005 200.483L457.652 200.084L458.299 199.679L458.946 199.268L459.593 198.852L460.24 198.43L460.887 198.003L461.535 197.571L462.182 197.133L462.829 196.69L463.476 196.242L464.123 195.788L464.77 195.33L465.417 194.866L466.065 194.398L466.712 193.924L467.359 193.446L468.006 192.962L468.653 192.474L469.3 191.981L469.947 191.483L470.594 190.981L471.242 190.474L471.889 189.962L472.536 189.446L473.183 188.925L473.83 188.4L474.477 187.871L475.124 187.337L475.772 186.799L476.419 186.256L477.066 185.71L477.713 185.159L478.36 184.605L479.007 184.046L479.654 183.484L480.302 182.918L480.949 182.347L481.596 181.773L482.243 181.196L482.89 180.615L483.537 180.03L484.184 179.441L484.831 178.85L485.479 178.254L486.126 177.656L486.773 177.054L487.42 176.449L488.067 175.841L488.714 175.229L489.361 174.615L490.009 173.998L490.656 173.378L491.303 172.755L491.95 172.129L492.597 171.5L493.244 170.869L493.891 170.235L494.539 169.599L495.186 168.96L495.833 168.319L496.48 167.676L497.127 167.03L497.774 166.382L498.421 165.732L499.068 165.08L499.716 164.426L500.363 163.77L501.01 163.112L501.657 162.453L502.304 161.791L502.951 161.128L503.598 160.464L504.246 159.797L504.893 159.13L505.54 158.461L506.187 157.791L506.834 157.119L507.481 156.446L508.128 155.772L508.776 155.098L509.423 154.422L510.07 153.745L510.717 153.067L511.364 152.389L512.011 151.71L512.658 151.03L513.305 150.35L513.953 149.669L514.6 148.988L515.247 148.306L515.894 147.625L516.541 146.943L517.188 146.26L517.835 145.578L518.483 144.896L519.13 144.214L519.777 143.532L520.424 142.85L521.071 142.168L521.718 141.487L522.365 140.806L523.013 140.126L523.66 139.446L524.307 138.767L524.954 138.089L525.601 137.411L526.248 136.734L526.895 136.058L527.542 135.383L528.19 134.709L528.837 134.036L529.484 133.365L530.131 132.694L530.778 132.025L531.425 131.357L532.072 130.691L532.72 130.026L533.367 129.363L534.014 128.702L534.661 128.042L535.308 127.384L535.955 126.727L536.602 126.073L537.25 125.421L537.897 124.771L538.544 124.123L539.191 123.477L539.838 122.833L540.485 122.192L541.132 121.553L541.779 120.916L542.427 120.282L543.074 119.651L543.721 119.022L544.368 118.396L545.015 117.772L545.662 117.152L546.309 116.534L546.957 115.92L547.604 115.308L548.251 114.699L548.898 114.094L549.545 113.492L550.192 112.893L550.839 112.297L551.487 111.705L552.134 111.117L552.781 110.531L553.428 109.95L554.075 109.372L554.722 108.797L555.369 108.227L556.016 107.66L556.664 107.097L557.311 106.538L557.958 105.983L558.605 105.432L559.252 104.885L559.899 104.343L560.546 103.804L561.194 103.27L561.841 102.74L562.488 102.214L563.135 101.693L563.782 101.176L564.429 100.664L565.076 100.157L565.723 99.6538L566.371 99.1555L567.018 98.662L567.665 98.1732L568.312 97.6893L568.959 97.2103L569.606 96.7362L570.253 96.2671L570.901 95.803L571.548 95.3439L572.195 94.89L572.842 94.4413L573.489 93.9978L574.136 93.5595L574.783 93.1266L575.431 92.699L576.078 92.2768L576.725 91.86L577.372 91.4487L578.019 91.0429L578.666 90.6427L579.313 90.248L579.96 89.8591L580.608 89.4758L581.255 89.0982L581.902 88.7264L582.549 88.3603L583.196 88.0001L583.843 87.6458L584.49 87.2974L585.138 86.955L585.785 86.6185L586.432 86.288L587.079 85.9636L587.726 85.6452L588.373 85.333L589.02 85.0269L589.668 84.7269L590.315 84.4332L590.962 84.1457L591.609 83.8645L592.256 83.5896L592.903 83.321L593.55 83.0587L594.197 82.8028L594.845 82.5533L595.492 82.3103L596.139 82.0737L596.786 81.8435L597.433 81.6199L598.08 81.4028L598.727 81.1922L599.375 80.9882L600.022 80.7908L600.669 80.6L601.316 80.4158L601.963 80.2383L602.61 80.0674L603.257 79.9032L603.905 79.7457L604.552 79.595L605.199 79.4509L605.846 79.3136L606.493 79.1831L607.14 79.0593L607.787 78.9423L608.434 78.8321L609.082 78.7287L609.729 78.6321L610.376 78.5423L611.023 78.4594L611.67 78.3833L612.317 78.3141L612.964 78.2518L613.612 78.1963L614.259 78.1476L614.906 78.1059L615.553 78.071L616.2 78.043L616.847 78.022L617.494 78.0077L618.142 78.0004L618.789 78L619.436 78.0065L620.083 78.0198L620.73 78.0401L621.377 78.0672L622.024 78.1012L622.671 78.1421L623.319 78.1899L623.966 78.2445L624.613 78.306L625.26 78.3744L625.907 78.4496L626.554 78.5317L627.201 78.6206L627.849 78.7164L628.496 78.8189L629.143 78.9283L629.79 79.0444L630.437 79.1674L631.084 79.2971L631.731 79.4336L632.379 79.5768L633.026 79.7267L633.673 79.8834L634.32 80.0468L634.967 80.2168L635.614 80.3935L636.261 80.5769L636.908 80.7669L637.556 80.9635L638.203 81.1666L638.85 81.3764L639.497 81.5927L640.144 81.8155L640.791 82.0448L641.438 82.2807L642.086 82.5229L642.733 82.7716L643.38 83.0267L644.027 83.2882L644.674 83.556L645.321 83.8301L645.968 84.1106L646.616 84.3973L647.263 84.6903L647.91 84.9894L648.557 85.2947L649.204 85.6062L649.851 85.9238L650.498 86.2475L651.145 86.5773L651.793 86.913L652.44 87.2547L653.087 87.6024L653.734 87.956L654.381 88.3155L655.028 88.6808L655.675 89.0519L656.323 89.4287L656.97 89.8113L657.617 90.1996L658.264 90.5935L658.911 90.9931L659.558 91.3982L660.205 91.8088L660.853 92.2249L661.5 92.6465L662.147 93.0734L662.794 93.5057L663.441 93.9433L664.088 94.3862L664.735 94.8343L665.382 95.2875L666.03 95.7459L666.677 96.2094L667.324 96.6779L667.971 97.1514L668.618 97.6298L669.265 98.1131L669.912 98.6013L670.56 99.0942L671.207 99.5919L671.854 100.094L672.501 100.601L673.148 101.113L673.795 101.629L674.442 102.15L675.09 102.675L675.737 103.204L676.384 103.738L677.031 104.276L677.678 104.818L678.325 105.364L678.972 105.915L679.619 106.469L680.267 107.028L680.914 107.59L681.561 108.156L682.208 108.727L682.855 109.3L683.502 109.878L684.149 110.459L684.797 111.044L685.444 111.632L686.091 112.224L686.738 112.819L687.385 113.418L688.032 114.019L688.679 114.624L689.327 115.233L689.974 115.844L690.621 116.458L691.268 117.075L691.915 117.695L692.562 118.318L693.209 118.944L693.856 119.573L694.504 120.204L695.151 120.837L695.798 121.474L696.445 122.112L697.092 122.753L697.739 123.397L698.386 124.043L699.034 124.69L699.681 125.34L700.328 125.992L700.975 126.646L701.622 127.302L702.269 127.96L702.916 128.62L703.564 129.281L704.211 129.944L704.858 130.609L705.505 131.275L706.152 131.942L706.799 132.611L707.446 133.282L708.093 133.953L708.741 134.626L709.388 135.3L710.035 135.975L710.682 136.65L711.329 137.327L711.976 138.005L712.623 138.683L713.271 139.362L713.918 140.042L714.565 140.722L715.212 141.403L715.859 142.084L716.506 142.766L717.153 143.447L717.801 144.129L718.448 144.812L719.095 145.494L719.742 146.176L720.389 146.858L721.036 147.54L721.683 148.222L722.33 148.904L722.978 149.585L723.625 150.266L724.272 150.946L724.919 151.626L725.566 152.305L726.213 152.983L726.86 153.661L727.508 154.338L728.155 155.014L728.802 155.689L729.449 156.363L730.096 157.036L730.743 157.708L731.39 158.378L732.038 159.047L732.685 159.715L733.332 160.381L733.979 161.046L734.626 161.709L735.273 162.371L735.92 163.031L736.567 163.689L737.215 164.345L737.862 164.999L738.509 165.652L739.156 166.302L739.803 166.95L740.45 167.596L741.097 168.24L741.745 168.881L742.392 169.52L743.039 170.157L743.686 170.791L744.333 171.422L744.98 172.051L745.627 172.677L746.275 173.301L746.922 173.921L747.569 174.539L748.216 175.154L748.863 175.765L749.51 176.374L750.157 176.979L750.804 177.581L751.452 178.18L752.099 178.776L752.746 179.368L753.393 179.957L754.04 180.542L754.687 181.124L755.334 181.702L755.982 182.277L756.629 182.847L757.276 183.414L757.923 183.977L758.57 184.536L759.217 185.091L759.864 185.642L760.512 186.189L761.159 186.732L761.806 187.27L762.453 187.805L763.1 188.335L763.747 188.86L764.394 189.382L765.041 189.898L765.689 190.411L766.336 190.918L766.983 191.421L767.63 191.92L768.277 192.413L768.924 192.902L769.571 193.386L770.219 193.865L770.866 194.34L771.513 194.809L772.16 195.273L772.807 195.732L773.454 196.186L774.101 196.635L774.749 197.078L775.396 197.517L776.043 197.95L776.69 198.378L777.337 198.8L777.984 199.217L778.631 199.628L779.278 200.034L779.926 200.434L780.573 200.829L781.22 201.218L781.867 201.602L782.514 201.979L783.161 202.351L783.808 202.717L784.456 203.078L785.103 203.432L785.75 203.78L786.397 204.123L787.044 204.46L787.691 204.79L788.338 205.115L788.986 205.433L789.633 205.746L790.28 206.052L790.927 206.352L791.574 206.646L792.221 206.933L792.868 207.215L793.515 207.49L794.163 207.758L794.81 208.021L795.457 208.277L796.104 208.526L796.751 208.77L797.398 209.006L798.045 209.236L798.693 209.46L799.34 209.677L799.987 209.888L800.634 210.092L801.281 210.29L801.928 210.481L802.575 210.665L803.223 210.843L803.87 211.014L804.517 211.178L805.164 211.336L805.811 211.486L806.458 211.631L807.105 211.768L807.752 211.899L808.4 212.023L809.047 212.14L809.694 212.25L810.341 212.354L810.988 212.45L811.635 212.54L812.282 212.623L812.93 212.699L813.577 212.769L814.224 212.831L814.871 212.887L815.518 212.936L816.165 212.977L816.812 213.012L817.46 213.041L818.107 213.062L818.754 213.076L819.401 213.084L820.048 213.084L820.695 213.078L821.342 213.065L821.989 213.044L822.637 213.017L823.284 212.983L823.931 212.943L824.578 212.895L825.225 212.841L825.872 212.779L826.519 212.711L827.167 212.636L827.814 212.554L828.461 212.465L829.108 212.369L829.755 212.267L830.402 212.158L831.049 212.042L831.697 211.919L832.344 211.789L832.991 211.653L833.638 211.51L834.285 211.36L834.932 211.203L835.579 211.04L836.226 210.87L836.874 210.694L837.521 210.51L838.168 210.321L838.815 210.124L839.462 209.921L840.109 209.711L840.756 209.495L841.404 209.273L842.051 209.043L842.698 208.808L843.345 208.565L843.992 208.317L844.639 208.062L845.286 207.801L845.934 207.533L846.581 207.259L847.228 206.978L847.875 206.692L848.522 206.399L849.169 206.1L849.816 205.795L850.463 205.483L851.111 205.166L851.758 204.842L852.405 204.513L853.052 204.177L853.699 203.835L854.346 203.488L854.993 203.134L855.641 202.775L856.288 202.41L856.935 202.039L857.582 201.662L858.229 201.28L858.876 200.891L859.523 200.497L860.171 200.098L860.818 199.693L861.465 199.283L862.112 198.867L862.759 198.445L863.406 198.018L864.053 197.586L864.7 197.149L865.348 196.706L865.995 196.258L866.642 195.805L867.289 195.346L867.936 194.883L868.583 194.414L869.23 193.941L869.878 193.463L870.525 192.98L871.172 192.491L871.819 191.999L872.466 191.501L873.113 190.999L873.76 190.492L874.408 189.98L875.055 189.464L875.702 188.944L876.349 188.419L876.996 187.889L877.643 187.356L878.29 186.818L878.937 186.276L879.585 185.729L880.232 185.179L880.879 184.625L881.526 184.066L882.173 183.504L882.82 182.938L883.467 182.368L884.115 181.794L884.762 181.216L885.409 180.635L886.056 180.05L886.703 179.462L887.35 178.87L887.997 178.275L888.644 177.677L889.292 177.075L889.939 176.47L890.586 175.862L891.233 175.251L891.88 174.637L892.527 174.02L893.174 173.4L893.822 172.777L894.469 172.151L895.116 171.523L895.763 170.891L896.41 170.258L897.057 169.622L897.704 168.983L898.352 168.342L898.999 167.699L899.646 167.053L900.293 166.405L900.94 165.755L901.587 165.103L902.234 164.449L902.881 163.793L903.529 163.135L904.176 162.476L904.823 161.815L905.47 161.152L906.117 160.487L906.764 159.821L907.411 159.153L908.059 158.485L908.706 157.814L909.353 157.143L910 156.47" stroke="#FF9228" stroke-width="16" stroke-miterlimit="10" stroke-linecap="round" stroke-linejoin="round"/>
</g>
<defs>
<clipPath id="clip0_510_9">
<rect width="820" height="312" fill="white"/>
</clipPath>
</defs>
</svg>
