<svg width="820" height="312" viewBox="0 0 820 312" fill="none" xmlns="http://www.w3.org/2000/svg">
<g clip-path="url(#clip0_508_2)">
<path d="M-73 216.094L-72.3529 216.762L-71.7057 217.428L-71.0586 218.093L-70.4115 218.756L-69.7643 219.418L-69.1172 220.077L-68.47 220.735L-67.8229 221.391L-67.1758 222.046L-66.5286 222.698L-65.8815 223.348L-65.2344 223.996L-64.5872 224.642L-63.9401 225.285L-63.293 225.926L-62.6458 226.565L-61.9987 227.202L-61.3515 227.836L-60.7044 228.467L-60.0573 229.096L-59.4101 229.721L-58.763 230.345L-58.1159 230.965L-57.4687 231.582L-56.8216 232.197L-56.1745 232.808L-55.5273 233.417L-54.8802 234.022L-54.233 234.624L-53.5859 235.223L-52.9388 235.818L-52.2916 236.41L-51.6445 236.999L-50.9974 237.584L-50.3502 238.165L-49.7031 238.743L-49.056 239.317L-48.4088 239.887L-47.7617 240.454L-47.1145 241.017L-46.4674 241.575L-45.8203 242.13L-45.1731 242.681L-44.526 243.228L-43.8789 243.77L-43.2317 244.308L-42.5846 244.842L-41.9375 245.372L-41.2903 245.897L-40.6432 246.418L-39.9961 246.935L-39.3489 247.447L-38.7018 247.954L-38.0546 248.457L-37.4075 248.955L-36.7604 249.448L-36.1132 249.937L-35.4661 250.42L-34.819 250.899L-34.1718 251.373L-33.5247 251.842L-32.8776 252.306L-32.2304 252.764L-31.5833 253.218L-30.9361 253.666L-30.289 254.11L-29.6419 254.548L-28.9947 254.98L-28.3476 255.408L-27.7005 255.83L-27.0533 256.246L-26.4062 256.657L-25.7591 257.063L-25.1119 257.462L-24.4648 257.857L-23.8176 258.245L-23.1705 258.628L-22.5234 259.006L-21.8762 259.377L-21.2291 259.743L-20.582 260.103L-19.9348 260.457L-19.2877 260.805L-18.6406 261.147L-17.9934 261.483L-17.3463 261.813L-16.6991 262.138L-16.052 262.456L-15.4049 262.767L-14.7577 263.073L-14.1106 263.373L-13.4635 263.666L-12.8163 263.953L-12.1692 264.234L-11.5221 264.509L-10.8749 264.777L-10.2278 265.039L-9.58065 265.295L-8.93351 265.544L-8.28637 265.786L-7.63924 266.023L-6.9921 266.253L-6.34496 266.476L-5.69783 266.693L-5.05069 266.903L-4.40356 267.106L-3.75642 267.303L-3.10928 267.494L-2.46215 267.678L-1.81501 267.855L-1.16787 268.025L-0.520738 268.189L0.126399 268.346L0.773535 268.497L1.42067 268.641L2.06781 268.778L2.71494 268.908L3.36208 269.031L4.00922 269.148L4.65635 269.258L5.30349 269.361L5.95063 269.457L6.59776 269.546L7.2449 269.629L7.89203 269.705L8.53917 269.773L9.18631 269.835L9.83344 269.891L10.4806 269.939L11.1277 269.98L11.7749 270.015L12.422 270.042L13.0691 270.063L13.7163 270.077L14.3634 270.084L15.0105 270.084L15.6577 270.077L16.3048 270.063L16.9519 270.043L17.5991 270.015L18.2462 269.981L18.8934 269.94L19.5405 269.891L20.1876 269.836L20.8348 269.775L21.4819 269.706L22.129 269.63L22.7762 269.548L23.4233 269.459L24.0704 269.362L24.7176 269.26L25.3647 269.15L26.0118 269.033L26.659 268.91L27.3061 268.78L27.9533 268.643L28.6004 268.499L29.2475 268.349L29.8947 268.192L30.5418 268.028L31.1889 267.858L31.8361 267.681L32.4832 267.497L33.1303 267.307L33.7775 267.11L34.4246 266.906L35.0718 266.696L35.7189 266.48L36.366 266.257L37.0132 266.027L37.6603 265.791L38.3074 265.548L38.9546 265.299L39.6017 265.044L40.2488 264.782L40.896 264.514L41.5431 264.239L42.1903 263.958L42.8374 263.671L43.4845 263.378L44.1317 263.079L44.7788 262.773L45.4259 262.461L46.0731 262.143L46.7202 261.819L47.3673 261.489L48.0145 261.153L48.6616 260.811L49.3088 260.463L49.9559 260.109L50.603 259.749L51.2502 259.384L51.8973 259.012L52.5444 258.635L53.1916 258.252L53.8387 257.864L54.4858 257.469L55.133 257.07L55.7801 256.664L56.4273 256.253L57.0744 255.837L57.7215 255.415L58.3687 254.988L59.0158 254.555L59.6629 254.117L60.3101 253.674L60.9572 253.226L61.6043 252.772L62.2515 252.314L62.8986 251.85L63.5458 251.381L64.1929 250.907L64.84 250.429L65.4872 249.945L66.1343 249.457L66.7814 248.964L67.4286 248.466L68.0757 247.963L68.7228 247.456L69.37 246.944L70.0171 246.428L70.6643 245.907L71.3114 245.381L71.9585 244.852L72.6057 244.318L73.2528 243.78L73.8999 243.237L74.5471 242.691L75.1942 242.14L75.8413 241.585L76.4885 241.027L77.1356 240.464L77.7828 239.897L78.4299 239.327L79.077 238.753L79.7242 238.175L80.3713 237.594L81.0184 237.009L81.6656 236.42L82.3127 235.829L82.9598 235.233L83.607 234.635L84.2541 234.033L84.9013 233.427L85.5484 232.819L86.1955 232.208L86.8427 231.593L87.4898 230.976L88.1369 230.356L88.7841 229.733L89.4312 229.107L90.0783 228.478L90.7255 227.847L91.3726 227.213L92.0197 226.577L92.6669 225.938L93.314 225.297L93.9612 224.653L94.6083 224.007L95.2554 223.359L95.9026 222.709L96.5497 222.057L97.1968 221.403L97.844 220.747L98.4911 220.089L99.1382 219.429L99.7854 218.768L100.433 218.105L101.08 217.44L101.727 216.774L102.374 216.106L103.021 215.437L103.668 214.767L104.315 214.095L104.962 213.422L105.61 212.749L106.257 212.074L106.904 211.398L107.551 210.721L108.198 210.043L108.845 209.365L109.492 208.686L110.14 208.006L110.787 207.326L111.434 206.645L112.081 205.964L112.728 205.282L113.375 204.601L114.022 203.918L114.67 203.236L115.317 202.554L115.964 201.872L116.611 201.19L117.258 200.508L117.905 199.826L118.552 199.144L119.199 198.463L119.847 197.782L120.494 197.102L121.141 196.422L121.788 195.743L122.435 195.065L123.082 194.387L123.729 193.71L124.377 193.034L125.024 192.359L125.671 191.685L126.318 191.013L126.965 190.341L127.612 189.671L128.259 189.001L128.907 188.334L129.554 187.668L130.201 187.003L130.848 186.34L131.495 185.678L132.142 185.018L132.789 184.36L133.436 183.704L134.084 183.05L134.731 182.398L135.378 181.748L136.025 181.1L136.672 180.454L137.319 179.81L137.966 179.169L138.614 178.53L139.261 177.894L139.908 177.26L140.555 176.628L141.202 176L141.849 175.374L142.496 174.75L143.144 174.13L143.791 173.512L144.438 172.898L145.085 172.286L145.732 171.678L146.379 171.073L147.026 170.471L147.673 169.872L148.321 169.276L148.968 168.684L149.615 168.096L150.262 167.511L150.909 166.929L151.556 166.351L152.203 165.777L152.851 165.207L153.498 164.64L154.145 164.077L154.792 163.518L155.439 162.964L156.086 162.413L156.733 161.866L157.381 161.324L158.028 160.785L158.675 160.251L159.322 159.721L159.969 159.196L160.616 158.675L161.263 158.158L161.91 157.646L162.558 157.139L163.205 156.636L163.852 156.138L164.499 155.645L165.146 155.156L165.793 154.672L166.44 154.193L167.088 153.72L167.735 153.251L168.382 152.787L169.029 152.328L169.676 151.874L170.323 151.426L170.97 150.982L171.618 150.544L172.265 150.111L172.912 149.684L173.559 149.262L174.206 148.845L174.853 148.434L175.5 148.029L176.147 147.629L176.795 147.234L177.442 146.845L178.089 146.462L178.736 146.085L179.383 145.713L180.03 145.348L180.677 144.988L181.325 144.633L181.972 144.285L182.619 143.943L183.266 143.607L183.913 143.276L184.56 142.952L185.207 142.634L185.855 142.322L186.502 142.016L187.149 141.716L187.796 141.423L188.443 141.136L189.09 140.855L189.737 140.58L190.384 140.312L191.032 140.05L191.679 139.794L192.326 139.545L192.973 139.302L193.62 139.065L194.267 138.836L194.914 138.612L195.562 138.395L196.209 138.185L196.856 137.981L197.503 137.784L198.15 137.593L198.797 137.409L199.444 137.232L200.092 137.062L200.739 136.898L201.386 136.74L202.033 136.59L202.68 136.446L203.327 136.309L203.974 136.179L204.621 136.055L205.269 135.938L205.916 135.828L206.563 135.725L207.21 135.629L207.857 135.539L208.504 135.457L209.151 135.381L209.799 135.312L210.446 135.25L211.093 135.194L211.74 135.146L212.387 135.105L213.034 135.07L213.681 135.042L214.329 135.021L214.976 135.007L215.623 135L216.27 135L216.917 135.007L217.564 135.02L218.211 135.041L218.858 135.068L219.506 135.103L220.153 135.144L220.8 135.192L221.447 135.247L222.094 135.308L222.741 135.377L223.388 135.452L224.036 135.535L224.683 135.624L225.33 135.72L225.977 135.823L226.624 135.932L227.271 136.049L227.918 136.172L228.566 136.302L229.213 136.439L229.86 136.582L230.507 136.732L231.154 136.889L231.801 137.053L232.448 137.223L233.095 137.4L233.743 137.583L234.39 137.774L235.037 137.971L235.684 138.174L236.331 138.384L236.978 138.6L237.625 138.824L238.273 139.053L238.92 139.289L239.567 139.532L240.214 139.781L240.861 140.036L241.508 140.298L242.155 140.566L242.803 140.84L243.45 141.121L244.097 141.408L244.744 141.701L245.391 142L246.038 142.306L246.685 142.617L247.332 142.935L247.98 143.259L248.627 143.589L249.274 143.925L249.921 144.267L250.568 144.615L251.215 144.969L251.862 145.328L252.51 145.694L253.157 146.065L253.804 146.442L254.451 146.825L255.098 147.213L255.745 147.608L256.392 148.007L257.039 148.413L257.687 148.823L258.334 149.24L258.981 149.661L259.628 150.089L260.275 150.521L260.922 150.959L261.569 151.402L262.217 151.85L262.864 152.304L263.511 152.762L264.158 153.226L264.805 153.695L265.452 154.168L266.099 154.647L266.747 155.13L267.394 155.619L268.041 156.112L268.688 156.61L269.335 157.112L269.982 157.619L270.629 158.131L271.276 158.647L271.924 159.168L272.571 159.693L273.218 160.223L273.865 160.757L274.512 161.295L275.159 161.837L275.806 162.384L276.454 162.934L277.101 163.489L277.748 164.048L278.395 164.61L279.042 165.177L279.689 165.747L280.336 166.321L280.984 166.898L281.631 167.48L282.278 168.065L282.925 168.653L283.572 169.245L284.219 169.84L284.866 170.439L285.513 171.041L286.161 171.646L286.808 172.254L287.455 172.865L288.102 173.48L288.749 174.097L289.396 174.717L290.043 175.34L290.691 175.966L291.338 176.595L291.985 177.226L292.632 177.86L293.279 178.496L293.926 179.135L294.573 179.776L295.221 180.42L295.868 181.065L296.515 181.713L297.162 182.363L297.809 183.015L298.456 183.67L299.103 184.326L299.75 184.983L300.398 185.643L301.045 186.305L301.692 186.968L302.339 187.632L302.986 188.298L303.633 188.966L304.28 189.635L304.928 190.305L305.575 190.977L306.222 191.65L306.869 192.324L307.516 192.998L308.163 193.674L308.81 194.351L309.458 195.029L310.105 195.707L310.752 196.386L311.399 197.066L312.046 197.746L312.693 198.427L313.34 199.108L313.987 199.79L314.635 200.471L315.282 201.153L315.929 201.836L316.576 202.518L317.223 203.2L317.87 203.882L318.517 204.564L319.165 205.246L319.812 205.928L320.459 206.609L321.106 207.29L321.753 207.97L322.4 208.65L323.047 209.329L323.695 210.007L324.342 210.685L324.989 211.362L325.636 212.038L326.283 212.713L326.93 213.387L327.577 214.06L328.224 214.731L328.872 215.402L329.519 216.071L330.166 216.738L330.813 217.405L331.46 218.07L332.107 218.733L332.754 219.394L333.402 220.054L334.049 220.712L334.696 221.368L335.343 222.022L335.99 222.675L336.637 223.325L337.284 223.973L337.932 224.619L338.579 225.262L339.226 225.904L339.873 226.543L340.52 227.179L341.167 227.813L341.814 228.445L342.461 229.073L343.109 229.699L343.756 230.323L344.403 230.943L345.05 231.561L345.697 232.175L346.344 232.787L346.991 233.395L347.639 234.001L348.286 234.603L348.933 235.202L349.58 235.797L350.227 236.389L350.874 236.978L351.521 237.563L352.169 238.145L352.816 238.723L353.463 239.297L354.11 239.867L354.757 240.434L355.404 240.997L356.051 241.556L356.698 242.111L357.346 242.662L357.993 243.208L358.64 243.751L359.287 244.289L359.934 244.824L360.581 245.353L361.228 245.879L361.876 246.4L362.523 246.917L363.17 247.429L363.817 247.936L364.464 248.439L365.111 248.937L365.758 249.431L366.406 249.919L367.053 250.403L367.7 250.882L368.347 251.356L368.994 251.825L369.641 252.289L370.288 252.748L370.935 253.202L371.583 253.651L372.23 254.094L372.877 254.532L373.524 254.965L374.171 255.393L374.818 255.815L375.465 256.231L376.113 256.643L376.76 257.048L377.407 257.448L378.054 257.843L378.701 258.232L379.348 258.615L379.995 258.992L380.643 259.364L381.29 259.73L381.937 260.09L382.584 260.444L383.231 260.793L383.878 261.135L384.525 261.471L385.172 261.802L385.82 262.126L386.467 262.444L387.114 262.757L387.761 263.063L388.408 263.362L389.055 263.656L389.702 263.943L390.35 264.224L390.997 264.499L391.644 264.768L392.291 265.03L392.938 265.286L393.585 265.535L394.232 265.778L394.88 266.014L395.527 266.245L396.174 266.468L396.821 266.685L397.468 266.895L398.115 267.099L398.762 267.297L399.409 267.487L400.057 267.671L400.704 267.849L401.351 268.02L401.998 268.184L402.645 268.341L403.292 268.492L403.939 268.636L404.587 268.773L405.234 268.903L405.881 269.027L406.528 269.144L407.175 269.254L407.822 269.357L408.469 269.454L409.117 269.543L409.764 269.626L410.411 269.702L411.058 269.771L411.705 269.833L412.352 269.889L412.999 269.937L413.646 269.979L414.294 270.014L414.941 270.041L415.588 270.062L416.235 270.076L416.882 270.084L417.529 270.084L418.176 270.077L418.824 270.064L419.471 270.044L420.118 270.016L420.765 269.982L421.412 269.941L422.059 269.893L422.706 269.838L423.354 269.777L424.001 269.708L424.648 269.633L425.295 269.551L425.942 269.462L426.589 269.366L427.236 269.263L427.883 269.154L428.531 269.037L429.178 268.914L429.825 268.785L430.472 268.648L431.119 268.505L431.766 268.355L432.413 268.198L433.061 268.034L433.708 267.864L434.355 267.687L435.002 267.504L435.649 267.314L436.296 267.117L436.943 266.914L437.591 266.704L438.238 266.487L438.885 266.265L439.532 266.035L440.179 265.799L440.826 265.557L441.473 265.308L442.12 265.053L442.768 264.791L443.415 264.523L444.062 264.249L444.709 263.968L445.356 263.682L446.003 263.389L446.65 263.089L447.298 262.784L447.945 262.472L448.592 262.155L449.239 261.831L449.886 261.501L450.533 261.165L451.18 260.823L451.828 260.475L452.475 260.122L453.122 259.762L453.769 259.397L454.416 259.026L455.063 258.649L455.71 258.266L456.357 257.878L457.005 257.483L457.652 257.084L458.299 256.679L458.946 256.268L459.593 255.852L460.24 255.43L460.887 255.003L461.535 254.571L462.182 254.133L462.829 253.69L463.476 253.242L464.123 252.788L464.77 252.33L465.417 251.866L466.065 251.398L466.712 250.924L467.359 250.446L468.006 249.962L468.653 249.474L469.3 248.981L469.947 248.483L470.594 247.981L471.242 247.474L471.889 246.962L472.536 246.446L473.183 245.925L473.83 245.4L474.477 244.871L475.124 244.337L475.772 243.799L476.419 243.256L477.066 242.71L477.713 242.159L478.36 241.605L479.007 241.046L479.654 240.484L480.302 239.918L480.949 239.347L481.596 238.773L482.243 238.196L482.89 237.615L483.537 237.03L484.184 236.441L484.831 235.85L485.479 235.254L486.126 234.656L486.773 234.054L487.42 233.449L488.067 232.841L488.714 232.229L489.361 231.615L490.009 230.998L490.656 230.378L491.303 229.755L491.95 229.129L492.597 228.5L493.244 227.869L493.891 227.235L494.539 226.599L495.186 225.96L495.833 225.319L496.48 224.676L497.127 224.03L497.774 223.382L498.421 222.732L499.068 222.08L499.716 221.426L500.363 220.77L501.01 220.112L501.657 219.453L502.304 218.791L502.951 218.128L503.598 217.464L504.246 216.797L504.893 216.13L505.54 215.461L506.187 214.791L506.834 214.119L507.481 213.446L508.128 212.772L508.776 212.098L509.423 211.422L510.07 210.745L510.717 210.067L511.364 209.389L512.011 208.71L512.658 208.03L513.305 207.35L513.953 206.669L514.6 205.988L515.247 205.306L515.894 204.625L516.541 203.943L517.188 203.26L517.835 202.578L518.483 201.896L519.13 201.214L519.777 200.532L520.424 199.85L521.071 199.168L521.718 198.487L522.365 197.806L523.013 197.126L523.66 196.446L524.307 195.767L524.954 195.089L525.601 194.411L526.248 193.734L526.895 193.058L527.542 192.383L528.19 191.709L528.837 191.036L529.484 190.365L530.131 189.694L530.778 189.025L531.425 188.357L532.072 187.691L532.72 187.026L533.367 186.363L534.014 185.702L534.661 185.042L535.308 184.384L535.955 183.727L536.602 183.073L537.25 182.421L537.897 181.771L538.544 181.123L539.191 180.477L539.838 179.833L540.485 179.192L541.132 178.553L541.779 177.916L542.427 177.282L543.074 176.651L543.721 176.022L544.368 175.396L545.015 174.772L545.662 174.152L546.309 173.534L546.957 172.92L547.604 172.308L548.251 171.699L548.898 171.094L549.545 170.492L550.192 169.893L550.839 169.297L551.487 168.705L552.134 168.117L552.781 167.531L553.428 166.95L554.075 166.372L554.722 165.797L555.369 165.227L556.016 164.66L556.664 164.097L557.311 163.538L557.958 162.983L558.605 162.432L559.252 161.885L559.899 161.343L560.546 160.804L561.194 160.27L561.841 159.74L562.488 159.214L563.135 158.693L563.782 158.176L564.429 157.664L565.076 157.157L565.723 156.654L566.371 156.156L567.018 155.662L567.665 155.173L568.312 154.689L568.959 154.21L569.606 153.736L570.253 153.267L570.901 152.803L571.548 152.344L572.195 151.89L572.842 151.441L573.489 150.998L574.136 150.56L574.783 150.127L575.431 149.699L576.078 149.277L576.725 148.86L577.372 148.449L578.019 148.043L578.666 147.643L579.313 147.248L579.96 146.859L580.608 146.476L581.255 146.098L581.902 145.726L582.549 145.36L583.196 145L583.843 144.646L584.49 144.297L585.138 143.955L585.785 143.618L586.432 143.288L587.079 142.964L587.726 142.645L588.373 142.333L589.02 142.027L589.668 141.727L590.315 141.433L590.962 141.146L591.609 140.864L592.256 140.59L592.903 140.321L593.55 140.059L594.197 139.803L594.845 139.553L595.492 139.31L596.139 139.074L596.786 138.844L597.433 138.62L598.08 138.403L598.727 138.192L599.375 137.988L600.022 137.791L600.669 137.6L601.316 137.416L601.963 137.238L602.61 137.067L603.257 136.903L603.905 136.746L604.552 136.595L605.199 136.451L605.846 136.314L606.493 136.183L607.14 136.059L607.787 135.942L608.434 135.832L609.082 135.729L609.729 135.632L610.376 135.542L611.023 135.459L611.67 135.383L612.317 135.314L612.964 135.252L613.612 135.196L614.259 135.148L614.906 135.106L615.553 135.071L616.2 135.043L616.847 135.022L617.494 135.008L618.142 135L618.789 135L619.436 135.006L620.083 135.02L620.73 135.04L621.377 135.067L622.024 135.101L622.671 135.142L623.319 135.19L623.966 135.245L624.613 135.306L625.26 135.374L625.907 135.45L626.554 135.532L627.201 135.621L627.849 135.716L628.496 135.819L629.143 135.928L629.79 136.044L630.437 136.167L631.084 136.297L631.731 136.434L632.379 136.577L633.026 136.727L633.673 136.883L634.32 137.047L634.967 137.217L635.614 137.394L636.261 137.577L636.908 137.767L637.556 137.963L638.203 138.167L638.85 138.376L639.497 138.593L640.144 138.816L640.791 139.045L641.438 139.281L642.086 139.523L642.733 139.772L643.38 140.027L644.027 140.288L644.674 140.556L645.321 140.83L645.968 141.111L646.616 141.397L647.263 141.69L647.91 141.989L648.557 142.295L649.204 142.606L649.851 142.924L650.498 143.248L651.145 143.577L651.793 143.913L652.44 144.255L653.087 144.602L653.734 144.956L654.381 145.315L655.028 145.681L655.675 146.052L656.323 146.429L656.97 146.811L657.617 147.2L658.264 147.594L658.911 147.993L659.558 148.398L660.205 148.809L660.853 149.225L661.5 149.646L662.147 150.073L662.794 150.506L663.441 150.943L664.088 151.386L664.735 151.834L665.382 152.288L666.03 152.746L666.677 153.209L667.324 153.678L667.971 154.151L668.618 154.63L669.265 155.113L669.912 155.601L670.56 156.094L671.207 156.592L671.854 157.094L672.501 157.601L673.148 158.113L673.795 158.629L674.442 159.15L675.09 159.675L675.737 160.204L676.384 160.738L677.031 161.276L677.678 161.818L678.325 162.364L678.972 162.915L679.619 163.469L680.267 164.028L680.914 164.59L681.561 165.156L682.208 165.727L682.855 166.3L683.502 166.878L684.149 167.459L684.797 168.044L685.444 168.632L686.091 169.224L686.738 169.819L687.385 170.418L688.032 171.019L688.679 171.624L689.327 172.233L689.974 172.844L690.621 173.458L691.268 174.075L691.915 174.695L692.562 175.318L693.209 175.944L693.856 176.573L694.504 177.204L695.151 177.837L695.798 178.474L696.445 179.112L697.092 179.753L697.739 180.397L698.386 181.043L699.034 181.69L699.681 182.34L700.328 182.992L700.975 183.646L701.622 184.302L702.269 184.96L702.916 185.62L703.564 186.281L704.211 186.944L704.858 187.609L705.505 188.275L706.152 188.942L706.799 189.611L707.446 190.282L708.093 190.953L708.741 191.626L709.388 192.3L710.035 192.975L710.682 193.65L711.329 194.327L711.976 195.005L712.623 195.683L713.271 196.362L713.918 197.042L714.565 197.722L715.212 198.403L715.859 199.084L716.506 199.766L717.153 200.447L717.801 201.129L718.448 201.812L719.095 202.494L719.742 203.176L720.389 203.858L721.036 204.54L721.683 205.222L722.33 205.904L722.978 206.585L723.625 207.266L724.272 207.946L724.919 208.626L725.566 209.305L726.213 209.983L726.86 210.661L727.508 211.338L728.155 212.014L728.802 212.689L729.449 213.363L730.096 214.036L730.743 214.708L731.39 215.378L732.038 216.047L732.685 216.715L733.332 217.381L733.979 218.046L734.626 218.709L735.273 219.371L735.92 220.031L736.567 220.689L737.215 221.345L737.862 221.999L738.509 222.652L739.156 223.302L739.803 223.95L740.45 224.596L741.097 225.24L741.745 225.881L742.392 226.52L743.039 227.157L743.686 227.791L744.333 228.422L744.98 229.051L745.627 229.677L746.275 230.301L746.922 230.921L747.569 231.539L748.216 232.154L748.863 232.765L749.51 233.374L750.157 233.979L750.804 234.581L751.452 235.18L752.099 235.776L752.746 236.368L753.393 236.957L754.04 237.542L754.687 238.124L755.334 238.702L755.982 239.277L756.629 239.847L757.276 240.414L757.923 240.977L758.57 241.536L759.217 242.091L759.864 242.642L760.512 243.189L761.159 243.732L761.806 244.27L762.453 244.805L763.1 245.335L763.747 245.86L764.394 246.382L765.041 246.898L765.689 247.411L766.336 247.918L766.983 248.421L767.63 248.92L768.277 249.413L768.924 249.902L769.571 250.386L770.219 250.865L770.866 251.34L771.513 251.809L772.16 252.273L772.807 252.732L773.454 253.186L774.101 253.635L774.749 254.078L775.396 254.517L776.043 254.95L776.69 255.378L777.337 255.8L777.984 256.217L778.631 256.628L779.278 257.034L779.926 257.434L780.573 257.829L781.22 258.218L781.867 258.602L782.514 258.979L783.161 259.351L783.808 259.717L784.456 260.078L785.103 260.432L785.75 260.78L786.397 261.123L787.044 261.46L787.691 261.79L788.338 262.115L788.986 262.433L789.633 262.746L790.28 263.052L790.927 263.352L791.574 263.646L792.221 263.933L792.868 264.215L793.515 264.49L794.163 264.758L794.81 265.021L795.457 265.277L796.104 265.526L796.751 265.77L797.398 266.006L798.045 266.236L798.693 266.46L799.34 266.677L799.987 266.888L800.634 267.092L801.281 267.29L801.928 267.481L802.575 267.665L803.223 267.843L803.87 268.014L804.517 268.178L805.164 268.336L805.811 268.486L806.458 268.631L807.105 268.768L807.752 268.899L808.4 269.023L809.047 269.14L809.694 269.25L810.341 269.354L810.988 269.45L811.635 269.54L812.282 269.623L812.93 269.699L813.577 269.769L814.224 269.831L814.871 269.887L815.518 269.936L816.165 269.977L816.812 270.012L817.46 270.041L818.107 270.062L818.754 270.076L819.401 270.084L820.048 270.084L820.695 270.078L821.342 270.065L821.989 270.044L822.637 270.017L823.284 269.983L823.931 269.943L824.578 269.895L825.225 269.841L825.872 269.779L826.519 269.711L827.167 269.636L827.814 269.554L828.461 269.465L829.108 269.369L829.755 269.267L830.402 269.158L831.049 269.042L831.697 268.919L832.344 268.789L832.991 268.653L833.638 268.51L834.285 268.36L834.932 268.203L835.579 268.04L836.226 267.87L836.874 267.694L837.521 267.51L838.168 267.321L838.815 267.124L839.462 266.921L840.109 266.711L840.756 266.495L841.404 266.273L842.051 266.043L842.698 265.808L843.345 265.565L843.992 265.317L844.639 265.062L845.286 264.801L845.934 264.533L846.581 264.259L847.228 263.978L847.875 263.692L848.522 263.399L849.169 263.1L849.816 262.795L850.463 262.483L851.111 262.166L851.758 261.842L852.405 261.513L853.052 261.177L853.699 260.835L854.346 260.488L854.993 260.134L855.641 259.775L856.288 259.41L856.935 259.039L857.582 258.662L858.229 258.28L858.876 257.891L859.523 257.497L860.171 257.098L860.818 256.693L861.465 256.283L862.112 255.867L862.759 255.445L863.406 255.018L864.053 254.586L864.7 254.149L865.348 253.706L865.995 253.258L866.642 252.805L867.289 252.346L867.936 251.883L868.583 251.414L869.23 250.941L869.878 250.463L870.525 249.98L871.172 249.491L871.819 248.999L872.466 248.501L873.113 247.999L873.76 247.492L874.408 246.98L875.055 246.464L875.702 245.944L876.349 245.419L876.996 244.889L877.643 244.356L878.29 243.818L878.937 243.276L879.585 242.729L880.232 242.179L880.879 241.625L881.526 241.066L882.173 240.504L882.82 239.938L883.467 239.368L884.115 238.794L884.762 238.216L885.409 237.635L886.056 237.05L886.703 236.462L887.35 235.87L887.997 235.275L888.644 234.677L889.292 234.075L889.939 233.47L890.586 232.862L891.233 232.251L891.88 231.637L892.527 231.02L893.174 230.4L893.822 229.777L894.469 229.151L895.116 228.523L895.763 227.891L896.41 227.258L897.057 226.622L897.704 225.983L898.352 225.342L898.999 224.699L899.646 224.053L900.293 223.405L900.94 222.755L901.587 222.103L902.234 221.449L902.881 220.793L903.529 220.135L904.176 219.476L904.823 218.815L905.47 218.152L906.117 217.487L906.764 216.821L907.411 216.153L908.059 215.485L908.706 214.814L909.353 214.143L910 213.47" stroke="#0088FF" stroke-width="16" stroke-miterlimit="10" stroke-linecap="round" stroke-linejoin="round"/>
</g>
<defs>
<clipPath id="clip0_508_2">
<rect width="820" height="312" fill="white"/>
</clipPath>
</defs>
</svg>
