<svg width="768" height="384" viewBox="0 0 768 384" fill="none" xmlns="http://www.w3.org/2000/svg">
<path d="M726.494 382H612.329L574.274 343.945V229.781L612.329 191.726L726.494 191.726L764.548 229.781V343.945L726.494 382Z" fill="white"/>
<path d="M345.945 382H231.78L193.725 343.945L193.725 229.781L231.78 191.726L345.945 191.726L384 229.781V343.945L345.945 382Z" fill="white"/>
<path d="M536.22 382H422.055L384 343.945V229.781L422.055 191.726L536.22 191.726L574.274 229.781V343.945L536.22 382Z" fill="white"/>
<path d="M155.671 382H41.5062L3.4514 343.945L3.4514 229.781L41.5062 191.726L155.671 191.726L193.726 229.781L193.726 343.945L155.671 382Z" fill="white"/>
<path d="M41.5063 1.99994H155.671L193.726 40.0546L231.781 1.99994L345.945 1.99994L384 40.0546L422.055 1.99994H536.219L574.274 40.0546L612.329 1.99994L726.494 1.99994L764.548 40.0546V154.22L726.494 192.274L612.329 192.274L574.274 154.22L536.219 192.274H422.055L384 154.22L345.945 192.274L231.781 192.274L193.726 154.22L155.671 192.274H41.5063L3.45166 154.22L3.45166 40.0546L41.5063 1.99994ZM32.4907 111.81H83.9155V163.234H112.712V111.81L164.137 111.81V83.0126L112.712 83.0126L112.712 31.5878H83.9155L83.9155 83.0126H32.4907L32.4907 111.81Z" fill="white"/>
</svg>
